<svg width="40" height="40" viewBox="0 0 40 40" fill="none" xmlns="http://www.w3.org/2000/svg">
<g clip-path="url(#clip0_325_626)">
<path d="M33.8624 7.26752C31.2687 6.07719 28.5318 5.22763 25.7199 4.74002C25.6945 4.73573 25.6683 4.73943 25.645 4.75062C25.6217 4.76182 25.6025 4.77995 25.5899 4.80252C25.2374 5.42752 24.8474 6.24502 24.5749 6.88502C21.544 6.42504 18.4609 6.42504 15.4299 6.88502C15.126 6.17207 14.7821 5.4768 14.3999 4.80252C14.3871 4.78019 14.3678 4.76227 14.3446 4.75112C14.3214 4.73996 14.2954 4.73609 14.2699 4.74002C11.4574 5.22502 8.71993 6.07502 6.12743 7.26752C6.10525 7.27598 6.08669 7.29189 6.07493 7.31252C0.889934 15.06 -0.532566 22.6175 0.164934 30.08C0.167434 30.115 0.189934 30.15 0.217434 30.1725C3.23674 32.4091 6.61391 34.1167 10.2049 35.2225C10.2303 35.2305 10.2575 35.2302 10.2827 35.2217C10.3079 35.2131 10.3297 35.1968 10.3449 35.175C11.1149 34.125 11.7999 33.0175 12.3899 31.8525C12.4022 31.8285 12.4064 31.8012 12.4019 31.7746C12.3974 31.748 12.3845 31.7236 12.3649 31.705C12.352 31.6928 12.3367 31.6834 12.3199 31.6775C11.2428 31.2636 10.1997 30.7662 9.19993 30.19C9.17201 30.1742 9.15124 30.1482 9.14194 30.1175C9.13263 30.0868 9.13549 30.0537 9.14993 30.025C9.15844 30.0064 9.1713 29.9901 9.18743 29.9775C9.39743 29.82 9.60743 29.655 9.80743 29.49C9.8251 29.4758 9.8463 29.4667 9.86876 29.4636C9.89122 29.4605 9.91409 29.4636 9.93493 29.4725C16.4824 32.4625 23.5699 32.4625 30.0374 29.4725C30.059 29.4632 30.0828 29.4599 30.1061 29.4629C30.1294 29.466 30.1515 29.4754 30.1699 29.49C30.3699 29.655 30.5799 29.82 30.7899 29.9775C30.807 29.99 30.8206 30.0064 30.8297 30.0254C30.8388 30.0444 30.8431 30.0654 30.8421 30.0865C30.8411 30.1075 30.8349 30.128 30.824 30.1461C30.8132 30.1641 30.798 30.1792 30.7799 30.19C29.7825 30.7715 28.738 31.2682 27.6574 31.675C27.6402 31.6813 27.6245 31.6912 27.6116 31.7042C27.5986 31.7171 27.5887 31.7328 27.5824 31.75C27.5767 31.7667 27.5743 31.7844 27.5756 31.802C27.5769 31.8197 27.5818 31.8368 27.5899 31.8525C28.1899 33.015 28.8774 34.125 29.6324 35.175C29.6477 35.1968 29.6695 35.2131 29.6947 35.2217C29.7198 35.2302 29.7471 35.2305 29.7724 35.2225C33.3695 34.1201 36.7521 32.4123 39.7749 30.1725C39.7901 30.162 39.8027 30.1483 39.8117 30.1323C39.8208 30.1163 39.8262 30.0984 39.8274 30.08C40.6624 21.4525 38.4299 13.9575 33.9124 7.31502C33.9079 7.30405 33.9011 7.29415 33.8925 7.28597C33.8839 7.27779 33.8736 7.2715 33.8624 7.26752ZM13.3674 25.535C11.3949 25.535 9.77243 23.725 9.77243 21.505C9.77243 19.2825 11.3649 17.4725 13.3674 17.4725C15.3849 17.4725 16.9924 19.2975 16.9624 21.505C16.9624 23.725 15.3699 25.535 13.3674 25.535ZM26.6574 25.535C24.6874 25.535 23.0624 23.725 23.0624 21.505C23.0624 19.2825 24.6549 17.4725 26.6574 17.4725C28.6749 17.4725 30.2849 19.2975 30.2524 21.505C30.2524 23.725 28.6749 25.535 26.6574 25.535Z" fill="white"/>
</g>
<defs>
<clipPath id="clip0_325_626">
<rect width="40" height="40" fill="white"/>
</clipPath>
</defs>
</svg>
