<svg width="40" height="40" viewBox="0 0 40 40" fill="none" xmlns="http://www.w3.org/2000/svg">
<path d="M34.3982 15.8984C33.2263 15.8984 32.1951 16.3828 31.4373 17.1406C28.6482 15.2109 24.8904 13.9688 20.7263 13.8359L22.8904 4.08594L29.781 5.63281C29.781 7.32031 31.156 8.69531 32.8435 8.69531C34.5623 8.69531 35.9451 7.28125 35.9451 5.59375C35.9451 3.90625 34.5701 2.49219 32.8435 2.49219C31.6404 2.49219 30.6013 3.21875 30.0857 4.21094L22.4763 2.52344C22.0935 2.42187 21.7185 2.69531 21.617 3.07813L19.242 13.8281C15.1092 14 11.3904 15.2422 8.59353 17.1719C7.83571 16.3828 6.7654 15.8984 5.59353 15.8984C1.24978 15.8984 -0.172095 21.7266 3.80447 23.7188C3.66384 24.3359 3.60134 24.9922 3.60134 25.6484C3.60134 32.1953 10.9763 37.5 20.031 37.5C29.1248 37.5 36.4998 32.1953 36.4998 25.6484C36.4998 24.9922 36.4295 24.3047 36.2576 23.6875C40.156 21.6875 38.7185 15.8984 34.3982 15.8984ZM10.1092 24.1328C10.1092 22.4141 11.4842 21.0313 13.2107 21.0313C14.8982 21.0313 16.2732 22.4063 16.2732 24.1328C16.2732 25.8203 14.8982 27.1953 13.2107 27.1953C11.492 27.2031 10.1092 25.8203 10.1092 24.1328ZM26.8513 31.4375C24.0076 34.2813 15.9841 34.2813 13.1404 31.4375C12.8279 31.1641 12.8279 30.6797 13.1404 30.3672C13.4138 30.0938 13.8982 30.0938 14.1716 30.3672C16.3435 32.5938 23.5466 32.6328 25.8123 30.3672C26.0857 30.0938 26.5701 30.0938 26.8435 30.3672C27.1638 30.6797 27.1638 31.1641 26.8513 31.4375ZM26.7888 27.2031C25.1013 27.2031 23.7263 25.8281 23.7263 24.1406C23.7263 22.4219 25.1013 21.0391 26.7888 21.0391C28.5076 21.0391 29.8904 22.4141 29.8904 24.1406C29.8826 25.8203 28.5076 27.2031 26.7888 27.2031Z" fill="white"/>
</svg>
